<mxfile host="app.diagrams.net" modified="2023-10-06T17:32:47.595Z" agent="Mozilla/5.0 (Windows NT 10.0; Win64; x64) AppleWebKit/537.36 (KHTML, like Gecko) Chrome/117.0.0.0 Safari/537.36" etag="8-y8oF1z9P7zhiW6NsMG" version="21.8.2" type="device">
  <diagram name="Page-1" id="b520641d-4fe3-3701-9064-5fc419738815">
    <mxGraphModel dx="1050" dy="534" grid="1" gridSize="10" guides="1" tooltips="1" connect="1" arrows="1" fold="1" page="1" pageScale="1" pageWidth="1100" pageHeight="850" background="none" math="0" shadow="0">
      <root>
        <mxCell id="0" />
        <mxCell id="1" parent="0" />
        <mxCell id="DlPBrXGXNVpmqVSE3VnG-9" value="desired file name" style="edgeStyle=orthogonalEdgeStyle;rounded=0;orthogonalLoop=1;jettySize=auto;html=1;entryX=0;entryY=0.5;entryDx=0;entryDy=0;exitX=1;exitY=0.25;exitDx=0;exitDy=0;" edge="1" parent="1" source="DlPBrXGXNVpmqVSE3VnG-18" target="DlPBrXGXNVpmqVSE3VnG-8">
          <mxGeometry relative="1" as="geometry">
            <mxPoint x="300" y="264.5" as="sourcePoint" />
            <mxPoint x="440" y="264.5" as="targetPoint" />
          </mxGeometry>
        </mxCell>
        <mxCell id="DlPBrXGXNVpmqVSE3VnG-21" value="filename" style="edgeStyle=orthogonalEdgeStyle;rounded=0;orthogonalLoop=1;jettySize=auto;html=1;exitX=1;exitY=0.5;exitDx=0;exitDy=0;entryX=0;entryY=0.5;entryDx=0;entryDy=0;" edge="1" parent="1" source="DlPBrXGXNVpmqVSE3VnG-8" target="DlPBrXGXNVpmqVSE3VnG-10">
          <mxGeometry relative="1" as="geometry" />
        </mxCell>
        <mxCell id="DlPBrXGXNVpmqVSE3VnG-8" value="Retrieve current grid from storage" style="rounded=0;whiteSpace=wrap;html=1;" vertex="1" parent="1">
          <mxGeometry x="440" y="180" width="120" height="60" as="geometry" />
        </mxCell>
        <mxCell id="DlPBrXGXNVpmqVSE3VnG-22" value="current grid" style="edgeStyle=orthogonalEdgeStyle;rounded=0;orthogonalLoop=1;jettySize=auto;html=1;exitX=0;exitY=0.75;exitDx=0;exitDy=0;entryX=1;entryY=0.5;entryDx=0;entryDy=0;" edge="1" parent="1" source="DlPBrXGXNVpmqVSE3VnG-10" target="DlPBrXGXNVpmqVSE3VnG-19">
          <mxGeometry relative="1" as="geometry" />
        </mxCell>
        <mxCell id="DlPBrXGXNVpmqVSE3VnG-30" style="edgeStyle=orthogonalEdgeStyle;rounded=0;orthogonalLoop=1;jettySize=auto;html=1;exitX=0.25;exitY=1;exitDx=0;exitDy=0;" edge="1" parent="1" source="DlPBrXGXNVpmqVSE3VnG-10">
          <mxGeometry relative="1" as="geometry">
            <mxPoint x="700" y="350" as="targetPoint" />
          </mxGeometry>
        </mxCell>
        <mxCell id="DlPBrXGXNVpmqVSE3VnG-10" value="1" style="swimlane;horizontal=0;whiteSpace=wrap;html=1;" vertex="1" parent="1">
          <mxGeometry x="650" y="230" width="200" height="70" as="geometry" />
        </mxCell>
        <mxCell id="DlPBrXGXNVpmqVSE3VnG-11" value="storage" style="text;html=1;align=center;verticalAlign=middle;resizable=0;points=[];autosize=1;strokeColor=none;fillColor=none;" vertex="1" parent="DlPBrXGXNVpmqVSE3VnG-10">
          <mxGeometry x="70" y="20" width="60" height="30" as="geometry" />
        </mxCell>
        <mxCell id="DlPBrXGXNVpmqVSE3VnG-15" value="desired manipulation" style="edgeStyle=orthogonalEdgeStyle;rounded=0;orthogonalLoop=1;jettySize=auto;html=1;entryX=0;entryY=0.5;entryDx=0;entryDy=0;exitX=1;exitY=0.75;exitDx=0;exitDy=0;" edge="1" parent="1" source="DlPBrXGXNVpmqVSE3VnG-18" target="DlPBrXGXNVpmqVSE3VnG-23">
          <mxGeometry relative="1" as="geometry">
            <mxPoint x="296" y="429" as="sourcePoint" />
            <mxPoint x="436" y="429" as="targetPoint" />
          </mxGeometry>
        </mxCell>
        <mxCell id="DlPBrXGXNVpmqVSE3VnG-17" value="desired square" style="edgeStyle=orthogonalEdgeStyle;rounded=0;orthogonalLoop=1;jettySize=auto;html=1;entryX=0;entryY=0.5;entryDx=0;entryDy=0;" edge="1" parent="1">
          <mxGeometry relative="1" as="geometry">
            <mxPoint x="296" y="320" as="sourcePoint" />
            <mxPoint x="436" y="320" as="targetPoint" />
          </mxGeometry>
        </mxCell>
        <mxCell id="DlPBrXGXNVpmqVSE3VnG-18" value="user" style="rounded=0;whiteSpace=wrap;html=1;" vertex="1" parent="1">
          <mxGeometry x="180" y="290" width="120" height="60" as="geometry" />
        </mxCell>
        <mxCell id="DlPBrXGXNVpmqVSE3VnG-24" value="contents of square" style="edgeStyle=orthogonalEdgeStyle;rounded=0;orthogonalLoop=1;jettySize=auto;html=1;exitX=0.5;exitY=1;exitDx=0;exitDy=0;entryX=0.5;entryY=0;entryDx=0;entryDy=0;" edge="1" parent="1" source="DlPBrXGXNVpmqVSE3VnG-36" target="DlPBrXGXNVpmqVSE3VnG-23">
          <mxGeometry relative="1" as="geometry" />
        </mxCell>
        <mxCell id="DlPBrXGXNVpmqVSE3VnG-19" value="what&#39;s in that square?" style="rounded=0;whiteSpace=wrap;html=1;" vertex="1" parent="1">
          <mxGeometry x="440" y="290" width="120" height="60" as="geometry" />
        </mxCell>
        <mxCell id="DlPBrXGXNVpmqVSE3VnG-27" value="square" style="edgeStyle=orthogonalEdgeStyle;rounded=0;orthogonalLoop=1;jettySize=auto;html=1;exitX=1;exitY=0.5;exitDx=0;exitDy=0;entryX=0;entryY=0.25;entryDx=0;entryDy=0;" edge="1" parent="1" source="DlPBrXGXNVpmqVSE3VnG-23" target="DlPBrXGXNVpmqVSE3VnG-26">
          <mxGeometry relative="1" as="geometry" />
        </mxCell>
        <mxCell id="DlPBrXGXNVpmqVSE3VnG-46" value="error message or possible manipulations" style="edgeStyle=orthogonalEdgeStyle;rounded=0;orthogonalLoop=1;jettySize=auto;html=1;exitX=0.5;exitY=1;exitDx=0;exitDy=0;entryX=1;entryY=0.25;entryDx=0;entryDy=0;" edge="1" parent="1" source="DlPBrXGXNVpmqVSE3VnG-23" target="DlPBrXGXNVpmqVSE3VnG-43">
          <mxGeometry relative="1" as="geometry">
            <Array as="points">
              <mxPoint x="490" y="510" />
              <mxPoint x="360" y="510" />
              <mxPoint x="360" y="555" />
            </Array>
          </mxGeometry>
        </mxCell>
        <mxCell id="DlPBrXGXNVpmqVSE3VnG-23" value="can this manipulation happen?" style="rounded=0;whiteSpace=wrap;html=1;" vertex="1" parent="1">
          <mxGeometry x="430" y="420" width="120" height="60" as="geometry" />
        </mxCell>
        <mxCell id="DlPBrXGXNVpmqVSE3VnG-42" value="manipulated grid" style="edgeStyle=orthogonalEdgeStyle;rounded=0;orthogonalLoop=1;jettySize=auto;html=1;exitX=0.5;exitY=1;exitDx=0;exitDy=0;entryX=1;entryY=0.5;entryDx=0;entryDy=0;" edge="1" parent="1" source="DlPBrXGXNVpmqVSE3VnG-26" target="DlPBrXGXNVpmqVSE3VnG-29">
          <mxGeometry relative="1" as="geometry" />
        </mxCell>
        <mxCell id="DlPBrXGXNVpmqVSE3VnG-26" value="manipulate grid" style="rounded=0;whiteSpace=wrap;html=1;" vertex="1" parent="1">
          <mxGeometry x="610" y="455" width="120" height="60" as="geometry" />
        </mxCell>
        <mxCell id="DlPBrXGXNVpmqVSE3VnG-44" value="grid" style="edgeStyle=orthogonalEdgeStyle;rounded=0;orthogonalLoop=1;jettySize=auto;html=1;exitX=0;exitY=0.5;exitDx=0;exitDy=0;" edge="1" parent="1" source="DlPBrXGXNVpmqVSE3VnG-29" target="DlPBrXGXNVpmqVSE3VnG-43">
          <mxGeometry relative="1" as="geometry">
            <Array as="points">
              <mxPoint x="360" y="600" />
              <mxPoint x="360" y="570" />
            </Array>
          </mxGeometry>
        </mxCell>
        <mxCell id="DlPBrXGXNVpmqVSE3VnG-29" value="compute grid" style="rounded=0;whiteSpace=wrap;html=1;" vertex="1" parent="1">
          <mxGeometry x="430" y="570" width="120" height="60" as="geometry" />
        </mxCell>
        <mxCell id="DlPBrXGXNVpmqVSE3VnG-32" value="current grid" style="edgeStyle=orthogonalEdgeStyle;rounded=0;orthogonalLoop=1;jettySize=auto;html=1;exitX=0.25;exitY=1;exitDx=0;exitDy=0;entryX=0.5;entryY=0;entryDx=0;entryDy=0;" edge="1" parent="1" source="DlPBrXGXNVpmqVSE3VnG-10" target="DlPBrXGXNVpmqVSE3VnG-26">
          <mxGeometry x="0.0541" y="3" relative="1" as="geometry">
            <mxPoint x="750" y="388" as="sourcePoint" />
            <mxPoint x="660" y="450" as="targetPoint" />
            <mxPoint x="1" as="offset" />
          </mxGeometry>
        </mxCell>
        <mxCell id="DlPBrXGXNVpmqVSE3VnG-34" value="1.1" style="rounded=0;whiteSpace=wrap;html=1;" vertex="1" parent="1">
          <mxGeometry x="440" y="160" width="120" height="20" as="geometry" />
        </mxCell>
        <mxCell id="DlPBrXGXNVpmqVSE3VnG-35" value="1.2" style="rounded=0;whiteSpace=wrap;html=1;" vertex="1" parent="1">
          <mxGeometry x="440" y="270" width="120" height="20" as="geometry" />
        </mxCell>
        <mxCell id="DlPBrXGXNVpmqVSE3VnG-37" value="current square" style="edgeStyle=orthogonalEdgeStyle;rounded=0;orthogonalLoop=1;jettySize=auto;html=1;exitX=0.5;exitY=1;exitDx=0;exitDy=0;entryX=0.5;entryY=0;entryDx=0;entryDy=0;" edge="1" parent="1" source="DlPBrXGXNVpmqVSE3VnG-19" target="DlPBrXGXNVpmqVSE3VnG-36">
          <mxGeometry relative="1" as="geometry">
            <mxPoint x="500" y="350" as="sourcePoint" />
            <mxPoint x="490" y="420" as="targetPoint" />
          </mxGeometry>
        </mxCell>
        <mxCell id="DlPBrXGXNVpmqVSE3VnG-36" value="1.3" style="rounded=0;whiteSpace=wrap;html=1;" vertex="1" parent="1">
          <mxGeometry x="430" y="400" width="120" height="20" as="geometry" />
        </mxCell>
        <mxCell id="DlPBrXGXNVpmqVSE3VnG-38" value="1.4" style="rounded=0;whiteSpace=wrap;html=1;" vertex="1" parent="1">
          <mxGeometry x="610" y="440" width="120" height="15" as="geometry" />
        </mxCell>
        <mxCell id="DlPBrXGXNVpmqVSE3VnG-40" value="1.5" style="rounded=0;whiteSpace=wrap;html=1;" vertex="1" parent="1">
          <mxGeometry x="430" y="550" width="120" height="20" as="geometry" />
        </mxCell>
        <mxCell id="DlPBrXGXNVpmqVSE3VnG-43" value="display" style="rounded=0;whiteSpace=wrap;html=1;" vertex="1" parent="1">
          <mxGeometry x="180" y="540" width="120" height="60" as="geometry" />
        </mxCell>
      </root>
    </mxGraphModel>
  </diagram>
</mxfile>
